<svg xmlns="http://www.w3.org/2000/svg" width="1280" height="720" viewBox="0 0 1280 720" role="img" aria-labelledby="title desc">
  <title id="title">Developer Map Draw Placeholder</title>
  <desc id="desc">Ukážková ilustrácia budovy s popisom poschodí pre kreslenie súradníc.</desc>
  <defs>
    <linearGradient id="skyLarge" x1="0%" x2="0%" y1="0%" y2="100%">
      <stop offset="0%" stop-color="#cfe6ff"/>
      <stop offset="55%" stop-color="#eaf3ff"/>
      <stop offset="100%" stop-color="#ffffff"/>
    </linearGradient>
    <linearGradient id="mountainLarge" x1="0%" x2="100%" y1="0%" y2="100%">
      <stop offset="0%" stop-color="#dfeaf5"/>
      <stop offset="100%" stop-color="#a6c0d6"/>
    </linearGradient>
    <linearGradient id="buildingLargeTop" x1="20%" x2="80%" y1="0%" y2="100%">
      <stop offset="0%" stop-color="#2f3442"/>
      <stop offset="60%" stop-color="#1f232e"/>
      <stop offset="100%" stop-color="#171a23"/>
    </linearGradient>
    <linearGradient id="buildingLargeSide" x1="0%" x2="100%" y1="0%" y2="100%">
      <stop offset="0%" stop-color="#232835"/>
      <stop offset="100%" stop-color="#11141c"/>
    </linearGradient>
    <linearGradient id="snowLarge" x1="0%" x2="0%" y1="0%" y2="100%">
      <stop offset="0%" stop-color="#ffffff"/>
      <stop offset="100%" stop-color="#f0f5fb"/>
    </linearGradient>
    <clipPath id="groundLarge">
      <path d="M-40 480L220 410L380 430L520 380L780 430L960 400L1280 460V760H-40Z"/>
    </clipPath>
  </defs>
  <rect width="1280" height="720" fill="url(#skyLarge)"/>
  <g opacity="0.75">
    <path d="M880 320L1260 420V760H700Z" fill="url(#mountainLarge)"/>
    <path d="M-60 460L220 380L480 420L710 360L1030 420L1280 380V760H-60Z" fill="url(#mountainLarge)"/>
  </g>
  <g clip-path="url(#groundLarge)">
    <rect x="-120" y="360" width="1520" height="440" fill="url(#snowLarge)"/>
    <path d="M-80 560L220 510L520 550L780 500L1080 540L1320 500" stroke="#d3deeb" stroke-width="12" stroke-linecap="round" opacity="0.38"/>
    <path d="M120 620L360 580L620 600L880 560L1200 590" stroke="#ccd9ea" stroke-width="7" stroke-linecap="round" opacity="0.6"/>
  </g>
  <g transform="translate(240 100)">
    <path d="M132 86L704 0L836 430L212 520Z" fill="#000" opacity="0.16"/>
    <path d="M124 76L696 0L828 422L204 510Z" fill="url(#buildingLargeTop)"/>
    <path d="M124 76L0 430L544 512L696 0Z" fill="#23293a" opacity="0.95"/>
    <path d="M696 0L828 422L500 520L368 272Z" fill="url(#buildingLargeSide)" opacity="0.92"/>
    <path d="M116 428L544 512L204 510Z" fill="#1b202c" opacity="0.78"/>
    <path d="M240 224L560 184L600 292L276 352Z" fill="#141a25" opacity="0.68"/>
    <g fill="#fa9a44" opacity="0.78">
      <rect x="182" y="172" width="32" height="68" rx="4"/>
      <rect x="258" y="158" width="32" height="80" rx="4"/>
      <rect x="338" y="140" width="36" height="92" rx="4"/>
      <rect x="420" y="124" width="34" height="88" rx="4"/>
      <rect x="216" y="288" width="32" height="84" rx="4"/>
      <rect x="292" y="272" width="32" height="92" rx="4"/>
      <rect x="368" y="254" width="36" height="104" rx="4"/>
      <rect x="450" y="238" width="34" height="96" rx="4"/>
      <rect x="248" y="380" width="32" height="80" rx="4"/>
      <rect x="328" y="364" width="32" height="86" rx="4"/>
      <rect x="408" y="348" width="32" height="86" rx="4"/>
    </g>
    <g fill="#1d222e" opacity="0.55">
      <rect x="116" y="426" width="48" height="112" rx="6"/>
      <rect x="712" y="60" width="42" height="150" rx="6"/>
      <rect x="744" y="240" width="42" height="168" rx="6"/>
    </g>
  </g>
  <g transform="translate(160 180)">
    <g fill="#ffffff" opacity="0.88" font-family="Inter, Segoe UI, sans-serif" font-weight="600">
      <rect x="0" y="0" width="96" height="44" rx="12" fill="#f7f1ed" opacity="0.9"/>
      <rect x="0" y="80" width="96" height="44" rx="12" fill="#f7f1ed" opacity="0.9"/>
      <rect x="0" y="160" width="96" height="44" rx="12" fill="#f7f1ed" opacity="0.9"/>
      <rect x="0" y="240" width="96" height="44" rx="12" fill="#f7f1ed" opacity="0.9"/>
      <rect x="0" y="320" width="96" height="44" rx="12" fill="#f7f1ed" opacity="0.9"/>
      <text x="48" y="30" text-anchor="middle" font-size="26" fill="#7b4121">4. NP</text>
      <text x="48" y="110" text-anchor="middle" font-size="26" fill="#7b4121">3. NP</text>
      <text x="48" y="190" text-anchor="middle" font-size="26" fill="#7b4121">2. NP</text>
      <text x="48" y="270" text-anchor="middle" font-size="26" fill="#7b4121">1. NP</text>
      <text x="48" y="350" text-anchor="middle" font-size="26" fill="#7b4121">1. PP</text>
    </g>
  </g>
  <rect x="1080" y="120" width="68" height="68" rx="18" fill="#6b3a1f" opacity="0.96"/>
  <text x="1114" y="164" font-family="Inter, Segoe UI, sans-serif" font-size="36" font-weight="600" fill="#f9ebe0">A</text>
</svg>
