<svg xmlns="http://www.w3.org/2000/svg" width="640" height="420" viewBox="0 0 640 420" role="img" aria-labelledby="title desc">
  <title id="title">Developer Map Building Placeholder</title>
  <desc id="desc">Fiktívny render budovy so zasneženou krajinou pre demoverziu náhľadov.</desc>
  <defs>
    <linearGradient id="sky" x1="0%" x2="0%" y1="0%" y2="100%">
      <stop offset="0%" stop-color="#c9e3ff"/>
      <stop offset="60%" stop-color="#e8f2ff"/>
      <stop offset="100%" stop-color="#ffffff"/>
    </linearGradient>
    <linearGradient id="mountain" x1="0%" x2="100%" y1="0%" y2="100%">
      <stop offset="0%" stop-color="#dbe8f5"/>
      <stop offset="100%" stop-color="#9fbad2"/>
    </linearGradient>
    <linearGradient id="building" x1="0%" x2="0%" y1="0%" y2="100%">
      <stop offset="0%" stop-color="#2d303c"/>
      <stop offset="55%" stop-color="#1c1e28"/>
      <stop offset="100%" stop-color="#171821"/>
    </linearGradient>
    <linearGradient id="snow" x1="0%" x2="0%" y1="0%" y2="100%">
      <stop offset="0%" stop-color="#ffffff" stop-opacity="0.95"/>
      <stop offset="100%" stop-color="#edf3fb" stop-opacity="0.95"/>
    </linearGradient>
    <clipPath id="groundClip">
      <path d="M0 280L120 240L220 250L340 220L460 260L640 210V420H0Z"/>
    </clipPath>
  </defs>
  <rect width="640" height="420" fill="url(#sky)"/>
  <g opacity="0.72">
    <path d="M520 150L620 190V420H390Z" fill="url(#mountain)"/>
    <path d="M0 260L140 210L280 250L380 210L520 250V420H0Z" fill="url(#mountain)"/>
  </g>
  <g clip-path="url(#groundClip)">
    <rect x="-40" y="210" width="760" height="240" fill="url(#snow)"/>
    <path d="M-20 330L160 290L320 320L480 280L660 320" stroke="#d0dced" stroke-width="6" stroke-linecap="round" opacity="0.45"/>
  </g>
  <g transform="translate(140 60)">
    <path d="M60 36L324 0L386 220L92 276Z" fill="#000" opacity="0.18"/>
    <path d="M56 32L320 0L384 214L88 272Z" fill="url(#building)"/>
    <path d="M56 32L0 188L252 240L320 0Z" fill="#1c2331" opacity="0.85"/>
    <path d="M320 0L384 214L232 264L168 160Z" fill="#111520" opacity="0.65"/>
    <path d="M40 190L252 240L88 272Z" fill="#1a202c" opacity="0.75"/>
    <path d="M120 120L280 96L296 164L134 198Z" fill="#10141d" opacity="0.6"/>
    <g fill="#f79342" opacity="0.78">
      <rect x="90" y="86" width="18" height="38" rx="3"/>
      <rect x="142" y="76" width="18" height="46" rx="3"/>
      <rect x="198" y="66" width="20" height="54" rx="3"/>
      <rect x="256" y="58" width="18" height="46" rx="3"/>
      <rect x="110" y="154" width="18" height="46" rx="3"/>
      <rect x="170" y="144" width="18" height="52" rx="3"/>
      <rect x="224" y="134" width="20" height="60" rx="3"/>
      <rect x="282" y="126" width="18" height="52" rx="3"/>
      <rect x="132" y="214" width="18" height="46" rx="3"/>
      <rect x="188" y="204" width="18" height="48" rx="3"/>
      <rect x="244" y="196" width="18" height="48" rx="3"/>
    </g>
    <g fill="#1d2533" opacity="0.55">
      <rect x="40" y="188" width="28" height="56" rx="4"/>
      <rect x="328" y="30" width="22" height="80" rx="4"/>
      <rect x="344" y="128" width="22" height="94" rx="4"/>
    </g>
  </g>
  <rect x="72" y="296" width="128" height="24" rx="12" fill="rgba(0,0,0,0.12)"/>
  <rect x="520" y="46" width="36" height="36" rx="8" fill="#67391d" opacity="0.9"/>
  <text x="538" y="72" text-anchor="middle" font-family="Inter, Segoe UI, sans-serif" font-size="18" font-weight="600" fill="#f9f1e9">A</text>
</svg>
